<?xml version="1.0" ?><svg viewBox="0 0 64 64" xmlns="http://www.w3.org/2000/svg"><defs><style>.cls-1{fill:#94d8e5;}.cls-2{fill:#f7f8fa;}.cls-3{fill:#7bd1e0;}</style></defs><g id="Bubbles"><path class="cls-1" d="M33.47,23.84A12.15,12.15,0,1,1,25.6,8.58,12.14,12.14,0,0,1,33.47,23.84Z" id="path301132-1"/><path class="cls-1" d="M54.25,33.4a8.48,8.48,0,1,1-8.47-8.47A8.48,8.48,0,0,1,54.25,33.4Z" id="path301237-2"/><path class="cls-1" d="M34.05,48.47a7.54,7.54,0,1,1-7.54-7.54A7.54,7.54,0,0,1,34.05,48.47Z" id="path301239-9"/><path class="cls-2" d="M26.75,15A2.68,2.68,0,1,1,25,11.63,2.68,2.68,0,0,1,26.75,15Z" id="path303472-3"/><path class="cls-3" d="M47.57,16a2.24,2.24,0,1,1-2.24-2.24A2.24,2.24,0,0,1,47.57,16Z" id="path307593-1"/><path class="cls-3" d="M33.12,35.17a1.86,1.86,0,1,1-1.86-1.86A1.86,1.86,0,0,1,33.12,35.17Z" id="circle307675-9"/><path class="cls-3" d="M43.53,47.67A2.65,2.65,0,1,1,40.89,45,2.64,2.64,0,0,1,43.53,47.67Z" id="circle307677-4"/><path class="cls-3" d="M45.54,27.37a5.75,5.75,0,0,0-5.73,5.73,1,1,0,0,0,2,0,3.72,3.72,0,0,1,3.73-3.73,1,1,0,0,0,0-2Z" id="path301471"/><path class="cls-3" d="M14.08,21.85a1,1,0,0,0-.61,1.27,8.94,8.94,0,0,0,5.71,5.55,1,1,0,0,0,.61-1.91h0a6.92,6.92,0,0,1-4.44-4.3A1,1,0,0,0,14.08,21.85Z" id="path301667"/><path class="cls-3" d="M26.51,43a1,1,0,0,0,0,2,3.48,3.48,0,0,1,3.5,3.5,1,1,0,0,0,2,0A5.51,5.51,0,0,0,26.51,43Z" id="path302069"/></g></svg>